<svg xmlns="http://www.w3.org/2000/svg" xmlns:xlink="http://www.w3.org/1999/xlink" viewBox="0 0 88.34 87.43"><defs><style>.cls-1{opacity:0.2;}.cls-2{fill:#f90006;}.cls-10,.cls-3{opacity:0;}.cls-4{opacity:0.05;}.cls-5{opacity:0.1;}.cls-17,.cls-6{opacity:0.15;}.cls-7{opacity:0.2;}.cls-8{opacity:0.25;}.cls-13,.cls-9{opacity:0.3;}.cls-10,.cls-11,.cls-12,.cls-13,.cls-14,.cls-15,.cls-16{fill:none;stroke:#fff;stroke-miterlimit:10;}.cls-10{stroke-linecap:round;stroke-width:7px;}.cls-11{stroke-width:6px;opacity:0.1;}.cls-12{stroke-width:5px;opacity:0.2;}.cls-13{stroke-width:4px;}.cls-14{stroke-width:3px;opacity:0.4;}.cls-15{stroke-width:2px;opacity:0.5;}.cls-16{opacity:0.6;}.cls-17{fill:url(#linear-gradient);}</style><linearGradient id="linear-gradient" x1="1395.9" y1="1386.22" x2="1436.54" y2="1386.22" gradientTransform="translate(-1341.79 1460.65) rotate(-90)" gradientUnits="userSpaceOnUse"><stop offset="0" stop-opacity="0"/><stop offset="1"/></linearGradient></defs><title>button</title><g id="Layer_2" data-name="Layer 2"><g id="Layer_1-2" data-name="Layer 1"><circle class="cls-1" cx="53.03" cy="43.98" r="35.31"/><circle class="cls-2" cx="44.43" cy="44.43" r="43"/><circle class="cls-3" cx="45.78" cy="48.67" r="38.56" transform="translate(-4.55 4.72) rotate(-5.62)"/><circle class="cls-4" cx="45.32" cy="48.05" r="37.63" transform="translate(-4.49 4.67) rotate(-5.62)"/><circle class="cls-5" cx="44.86" cy="47.43" r="36.71" transform="translate(-4.43 4.62) rotate(-5.62)"/><circle class="cls-6" cx="44.4" cy="46.81" r="35.78" transform="translate(-4.37 4.57) rotate(-5.62)"/><circle class="cls-7" cx="43.94" cy="46.2" r="34.86" transform="translate(-4.31 4.53) rotate(-5.62)"/><circle class="cls-8" cx="43.48" cy="45.58" r="33.93" transform="translate(-4.25 4.48) rotate(-5.62)"/><circle class="cls-9" cx="43.02" cy="44.96" r="33" transform="translate(-4.2 4.43) rotate(-5.62)"/><circle class="cls-1" cx="44.43" cy="44.43" r="33.08"/><circle class="cls-2" cx="44.43" cy="44.43" r="31.94"/><path class="cls-10" d="M3.5,44.43A40.93,40.93,0,0,1,44.43,3.5"/><path class="cls-11" d="M4.4,41.05A38.46,38.46,0,0,1,41.61,4.11"/><path class="cls-12" d="M5.29,37.67A36.22,36.22,0,0,1,38.78,4.72"/><path class="cls-13" d="M6.19,34.29A34.37,34.37,0,0,1,36,5.33"/><path class="cls-14" d="M7.08,30.91a33.28,33.28,0,0,1,26-25"/><path class="cls-15" d="M8,27.53a34,34,0,0,1,22.32-21"/><path class="cls-16" d="M8.87,24.15a41.1,41.1,0,0,1,18.6-17"/><path class="cls-10" d="M15.7,44.43A28.74,28.74,0,0,1,44.43,15.7"/><path class="cls-11" d="M16.33,42.06A27,27,0,0,1,42.45,16.13"/><path class="cls-12" d="M17,39.69A25.42,25.42,0,0,1,40.46,16.56"/><path class="cls-13" d="M17.58,37.31A24.13,24.13,0,0,1,38.48,17"/><path class="cls-14" d="M18.21,34.94A23.36,23.36,0,0,1,36.49,17.41"/><path class="cls-15" d="M18.84,32.57A23.87,23.87,0,0,1,34.51,17.84"/><path class="cls-16" d="M19.47,30.19A28.86,28.86,0,0,1,32.53,18.27"/><path class="cls-10" d="M69.45,44.43a25,25,0,0,1-25,25"/><path class="cls-11" d="M68.9,46.5A23.5,23.5,0,0,1,46.16,69.07"/><path class="cls-12" d="M68.35,48.56A22.13,22.13,0,0,1,47.89,68.7"/><path class="cls-13" d="M67.81,50.63a21,21,0,0,1-18.19,17.7"/><path class="cls-14" d="M67.26,52.7A20.34,20.34,0,0,1,51.34,68"/><path class="cls-15" d="M66.71,54.76A20.78,20.78,0,0,1,53.07,67.58"/><path class="cls-16" d="M66.16,56.83A25.12,25.12,0,0,1,54.8,67.21"/><circle class="cls-17" cx="44.43" cy="44.43" r="20.32" transform="translate(-18.4 44.43) rotate(-45)"/></g></g></svg>